# xmcd
#
# Track frame offsets:
# 150
# 14479
# 27497
# 42264
# 57619
# 72480
# 88227
# 103590
# 118975
# 133575
#
# Disc length: 2002 seconds
#
# Revision: 0
# Processed by: cddbd v1.5.2PL0 Copyright (c) Steve Scherf et al.
# Submitted via: Axialis_AX_CDPlayer 2.6
#
DISCID=9707d00a
DTITLE=James House - Songwriters Serenade
DYEAR=1900
DGENRE=
TTITLE0=Me Too
TTITLE1=Over Getting Over You (Featuring Natalie Noone)
TTITLE2=Ain't We A Pair
TTITLE3=Devil's Road
TTITLE4=Know Mercy
TTITLE5=No Fear
TTITLE6=Songwriters Serenade
TTITLE7=Love Unbroken
TTITLE8=Bring it On
TTITLE9=Love Has A Way
EXTD=
EXTT0=
EXTT1=
EXTT2=
EXTT3=
EXTT4=
EXTT5=
EXTT6=
EXTT7=
EXTT8=
EXTT9=
PLAYORDER=
